<?xml version="1.0" standalone="no"?>
<!DOCTYPE svg PUBLIC "-//W3C//DTD SVG 20010904//EN"
 "http://www.w3.org/TR/2001/REC-SVG-20010904/DTD/svg10.dtd">
<svg version="1.0" xmlns="http://www.w3.org/2000/svg"
 width="100.000000pt" height="100.000000pt" viewBox="0 0 100.000000 100.000000"
 preserveAspectRatio="xMidYMid meet">

<g transform="translate(0.000000,100.000000) scale(0.100000,-0.100000)"
fill="#000000" stroke="none">
<path d="M205 928 c-3 -7 -4 -204 -3 -438 l3 -425 95 0 95 0 3 167 2 168 178
2 177 3 0 75 0 75 -177 3 -178 2 0 100 0 100 198 2 197 3 0 85 0 85 -293 3
c-229 2 -294 0 -297 -10z m555 -78 l0 -50 -197 -2 -198 -3 0 -135 0 -135 178
-3 177 -2 0 -40 0 -40 -177 -2 -178 -3 -3 -167 -2 -168 -60 0 -60 0 0 400 0
400 260 0 260 0 0 -50z"/>
</g>
</svg>
